<svg xmlns="http://www.w3.org/2000/svg" version="1.1" xmlns:xlink="http://www.w3.org/1999/xlink" xmlns:svgjs="http://svgjs.dev/svgjs" width="500" height="375" viewBox="0 0 1000 750"><rect width="1000" height="750" fill="#609966"></rect><g transform="matrix(0.834,0,0,0.834,82.49454545454546,115.4193570850203)"><svg viewBox="0 0 396 247" data-background-color="#50a060" preserveAspectRatio="xMidYMid meet" height="623" width="1000" xmlns="http://www.w3.org/2000/svg" xmlns:xlink="http://www.w3.org/1999/xlink"><g id="tight-bounds" transform="matrix(1,0,0,1,0.2400000000000091,-0.09999999999999432)"><svg viewBox="0 0 395.52 247.2" height="247.2" width="395.52"><g><svg></svg></g><g><svg viewBox="0 0 395.52 247.2" height="247.2" width="395.52"><g transform="matrix(1,0,0,1,39.55199999999999,108.60583484423933)"><svg viewBox="0 0 316.416 29.988330311521345" height="29.988330311521345" width="316.416"><g><svg viewBox="0 0 316.416 29.988330311521345" height="29.988330311521345" width="316.416"><g><svg viewBox="0 0 316.416 29.988330311521345" height="29.988330311521345" width="316.416"><g id="textblocktransform"><svg viewBox="0 0 316.416 29.988330311521345" height="29.988330311521345" width="316.416" id="textblock"><g><svg viewBox="0 0 316.416 29.988330311521345" height="29.988330311521345" width="316.416"><g transform="matrix(1,0,0,1,0,0)"><svg width="316.416" viewBox="5 -28.75 303.33 28.75" height="29.988330311521345" data-palette-color="#fff1dc"><path d="M5-28.75L5-28.75 21-28.75 21-22.85 11.3-22.85 11.3-17.2 21-17.2 21-11.35 11.3-11.35 11.3 0 5 0 5-28.75ZM39.45-22.85L39.45-22.85 39.45-28.75 23.45-28.75 23.45-22.85 39.45-22.85ZM31.55-11.35L31.55-11.35 31.55-17.2 23.45-17.2 23.45-11.35 31.55-11.35ZM43.95-25.3L43.95-25.3 49.65-28.75 59.95-28.75 59.95-23.1 50.25-23.1 50.25-17.2 59.95-17.2 59.95-11.5 50.25-11.5 50.25 0 43.95 0 43.95-25.3ZM78.4-25.3L78.4-25.3 72.5-28.75 62.2-28.75 62.2-23.1 72.1-23.1 72.1-17.2 62.2-17.2 62.2-11.5 72.1-11.5 72.1 0 78.4 0 78.4-25.3ZM83.3-3.4L83.3-25.3 89.15-28.75 99.5-28.75 99.5-23.1 89.8-23.1 89.8-5.85 99.3-5.85 99.3 0 89.15 0 83.3-3.4ZM117.95-9.3L111.45-9.3 111.45-5.85 101.95-5.85 101.95 0 112.1 0 117.95-3.4 117.95-9.3ZM111.45-19.6L117.95-19.6 117.95-25.3 112.1-28.75 101.75-28.75 101.75-23.1 111.45-23.1 111.45-19.6ZM157.89-28.75L157.89-23.1 143.49-23.1 143.49 0 136.59 0 136.59-23.1 123.44-23.1 123.44-28.75 157.89-28.75ZM163.39-28.75L163.39-28.75 169.69-28.75 169.69 0 163.39 0 163.39-28.75ZM178.69-28.75L178.69-28.75 194.69-28.75 194.69-22.85 184.99-22.85 184.99-17.2 194.69-17.2 194.69-11.35 184.99-11.35 184.99 0 178.69 0 178.69-28.75ZM213.14-22.85L213.14-22.85 213.14-28.75 197.14-28.75 197.14-22.85 213.14-22.85ZM205.24-11.35L205.24-11.35 205.24-17.2 197.14-17.2 197.14-11.35 205.24-11.35ZM217.64-28.75L217.64-28.75 223.94-28.75 223.94 0 217.64 0 217.64-28.75ZM232.93-28.75L232.93-28.75 248.93-28.75 248.93-22.85 239.23-22.85 239.23-17.2 248.93-17.2 248.93-11.5 239.23-11.5 239.23-5.65 248.73-5.65 248.73 0 232.93 0 232.93-28.75ZM251.38-5.65L251.38-5.65 251.38 0 267.38 0 267.38-5.65 251.38-5.65ZM267.38-22.85L267.38-22.85 267.38-28.75 251.18-28.75 251.18-22.85 267.38-22.85ZM259.28-11.5L259.28-11.5 259.28-17.2 251.18-17.2 251.18-11.5 259.28-11.5ZM273.88-28.75L273.88-28.75 289.88-28.75 289.88-22.85 280.18-22.85 280.18-17.2 289.88-17.2 289.88-11.35 280.18-11.35 280.18 0 273.88 0 273.88-28.75ZM308.33 0L308.33 0 308.33-11.9 303.63-14.35 308.33-16.6 308.33-25.3 302.43-28.75 292.13-28.75 292.13-22.85 302.03-22.85 302.03-17.2 292.13-17.2 292.13-11.35 302.03-11.35 302.03 0 308.33 0Z" opacity="1" transform="matrix(1,0,0,1,0,0)" fill="#fff1dc" class="undefined-text-0" data-fill-palette-color="primary" id="text-0"></path></svg></g></svg></g></svg></g></svg></g><g></g></svg></g></svg></g><g mask="url(#2183655b-b7a8-4c41-9104-8244878f62e3)"><g transform="matrix(4.086666666666667, 0, 0, 4.086666666666667, 89.46333333333332, 0.9999999999999858)"><svg xmlns="http://www.w3.org/2000/svg" xmlns:xlink="http://www.w3.org/1999/xlink" version="1.1" x="0" y="0" viewBox="3.5 0 53 60" style="enable-background:new 0 0 60 60;" xml:space="preserve" height="60" width="53" class="icon-none" data-fill-palette-color="accent" id="none"><g fill="#fff1dc" data-fill-palette-color="accent"><path d="M55.5 60h-33c-3.86 0-7-3.141-7-7V7c0-2.757-2.243-5-5-5-0.552 0-1-0.447-1-1s0.448-1 1-1h39c3.859 0 7 3.141 7 7v52C56.5 59.553 56.052 60 55.5 60zM15.395 2C16.693 3.271 17.5 5.043 17.5 7v46c0 2.757 2.243 5 5 5h32V7c0-2.757-2.243-5-5-5H15.395z" fill="#fff1dc" data-fill-palette-color="accent"></path><path d="M16.5 54h-6c-3.86 0-7-3.141-7-7V7c0-3.859 3.14-7 7-7h13c0.552 0 1 0.447 1 1s-0.448 1-1 1h-13c-2.757 0-5 2.243-5 5v40c0 2.757 2.243 5 5 5h6c0.552 0 1 0.447 1 1S17.052 54 16.5 54z" fill="#fff1dc" data-fill-palette-color="accent"></path><path d="M49.5 46h-27c-0.552 0-1-0.447-1-1s0.448-1 1-1h27c0.552 0 1 0.447 1 1S50.052 46 49.5 46z" fill="#fff1dc" data-fill-palette-color="accent"></path><path d="M49.5 40h-27c-0.552 0-1-0.447-1-1s0.448-1 1-1h27c0.552 0 1 0.447 1 1S50.052 40 49.5 40z" fill="#fff1dc" data-fill-palette-color="accent"></path><path d="M49.5 30h-27c-0.552 0-1-0.447-1-1s0.448-1 1-1h27c0.552 0 1 0.447 1 1S50.052 30 49.5 30z" fill="#fff1dc" data-fill-palette-color="accent"></path><path d="M49.5 26h-27c-0.552 0-1-0.447-1-1s0.448-1 1-1h27c0.552 0 1 0.447 1 1S50.052 26 49.5 26z" fill="#fff1dc" data-fill-palette-color="accent"></path><path d="M49.5 22h-27c-0.552 0-1-0.447-1-1s0.448-1 1-1h27c0.552 0 1 0.447 1 1S50.052 22 49.5 22z" fill="#fff1dc" data-fill-palette-color="accent"></path><path d="M49.5 18h-13c-0.552 0-1-0.447-1-1s0.448-1 1-1h13c0.552 0 1 0.447 1 1S50.052 18 49.5 18z" fill="#fff1dc" data-fill-palette-color="accent"></path><path d="M49.5 14h-13c-0.552 0-1-0.447-1-1s0.448-1 1-1h13c0.552 0 1 0.447 1 1S50.052 14 49.5 14z" fill="#fff1dc" data-fill-palette-color="accent"></path><path d="M49.5 8h-13c-0.552 0-1-0.447-1-1s0.448-1 1-1h13c0.552 0 1 0.447 1 1S50.052 8 49.5 8z" fill="#fff1dc" data-fill-palette-color="accent"></path><path d="M49.5 50h-27c-0.552 0-1-0.447-1-1s0.448-1 1-1h27c0.552 0 1 0.447 1 1S50.052 50 49.5 50z" fill="#fff1dc" data-fill-palette-color="accent"></path><path d="M32.5 18h-10c-0.552 0-1-0.447-1-1V7c0-0.553 0.448-1 1-1h10c0.552 0 1 0.447 1 1v10C33.5 17.553 33.052 18 32.5 18zM23.5 16h8V8h-8V16z" fill="#fff1dc" data-fill-palette-color="accent"></path></g></svg></g></g></svg></g><defs><mask id="2183655b-b7a8-4c41-9104-8244878f62e3"><rect width="640" height="400" fill="white"></rect><rect width="348.05760000000004" height="44.14738044476677" fill="black" x="145.97119999999998" y="177.9263097776166" id="transform-me" transform="matrix(1,0,0,1,-122.24000000000001,-76.4)"></rect></mask></defs></svg><rect width="395.52" height="247.2" fill="none" stroke="none" visibility="hidden"></rect></g></svg></g></svg>