<svg xmlns="http://www.w3.org/2000/svg" version="1.1" xmlns:xlink="http://www.w3.org/1999/xlink" xmlns:svgjs="http://svgjs.dev/svgjs" width="1000" height="750" viewBox="0 0 1000 750"><rect width="1000" height="750" fill="#609966"></rect><g transform="matrix(0.834,0,0,0.834,82.49454545454546,115.4193570850203)"><svg viewBox="0 0 396 247" data-background-color="#609966" preserveAspectRatio="xMidYMid meet" height="623" width="1000" xmlns="http://www.w3.org/2000/svg" xmlns:xlink="http://www.w3.org/1999/xlink"><g id="tight-bounds" transform="matrix(1,0,0,1,0.2400000000000091,-0.09999999999999432)"><svg viewBox="0 0 395.52 247.2" height="247.2" width="395.52"><g><svg viewBox="0 0 395.52 247.2" height="247.2" width="395.52"><g transform="matrix(1,0,0,1,2.842170943040401e-14,104.85729355529915)"><svg viewBox="0 0 395.5199999999999 37.48541288940167" height="37.48541288940167" width="395.5199999999999"><g><svg viewBox="0 0 395.5199999999999 37.48541288940167" height="37.48541288940167" width="395.5199999999999"><g><svg viewBox="0 0 395.5199999999999 37.48541288940167" height="37.48541288940167" width="395.5199999999999"><g id="textblocktransform"><svg viewBox="0 0 395.5199999999999 37.48541288940167" height="37.48541288940167" width="395.5199999999999" id="textblock"><g><svg viewBox="0 0 395.5199999999999 37.48541288940167" height="37.48541288940167" width="395.5199999999999"><g transform="matrix(1,0,0,1,0,0)"><svg width="395.5199999999999" viewBox="5 -28.75 303.33 28.75" height="37.48541288940167" data-palette-color="#fff1dc"><path d="M5-28.75L5-28.75 21-28.75 21-22.85 11.3-22.85 11.3-17.2 21-17.2 21-11.35 11.3-11.35 11.3 0 5 0 5-28.75ZM39.45-22.85L39.45-22.85 39.45-28.75 23.45-28.75 23.45-22.85 39.45-22.85ZM31.55-11.35L31.55-11.35 31.55-17.2 23.45-17.2 23.45-11.35 31.55-11.35ZM43.95-25.3L43.95-25.3 49.65-28.75 59.95-28.75 59.95-23.1 50.25-23.1 50.25-17.2 59.95-17.2 59.95-11.5 50.25-11.5 50.25 0 43.95 0 43.95-25.3ZM78.4-25.3L78.4-25.3 72.5-28.75 62.2-28.75 62.2-23.1 72.1-23.1 72.1-17.2 62.2-17.2 62.2-11.5 72.1-11.5 72.1 0 78.4 0 78.4-25.3ZM83.3-3.4L83.3-25.3 89.15-28.75 99.5-28.75 99.5-23.1 89.8-23.1 89.8-5.85 99.3-5.85 99.3 0 89.15 0 83.3-3.4ZM117.95-9.3L111.45-9.3 111.45-5.85 101.95-5.85 101.95 0 112.1 0 117.95-3.4 117.95-9.3ZM111.45-19.6L117.95-19.6 117.95-25.3 112.1-28.75 101.75-28.75 101.75-23.1 111.45-23.1 111.45-19.6ZM157.89-28.75L157.89-23.1 143.49-23.1 143.49 0 136.59 0 136.59-23.1 123.44-23.1 123.44-28.75 157.89-28.75ZM163.39-28.75L163.39-28.75 169.69-28.75 169.69 0 163.39 0 163.39-28.75ZM178.69-28.75L178.69-28.75 194.69-28.75 194.69-22.85 184.99-22.85 184.99-17.2 194.69-17.2 194.69-11.35 184.99-11.35 184.99 0 178.69 0 178.69-28.75ZM213.14-22.85L213.14-22.85 213.14-28.75 197.14-28.75 197.14-22.85 213.14-22.85ZM205.24-11.35L205.24-11.35 205.24-17.2 197.14-17.2 197.14-11.35 205.24-11.35ZM217.64-28.75L217.64-28.75 223.94-28.75 223.94 0 217.64 0 217.64-28.75ZM232.93-28.75L232.93-28.75 248.93-28.75 248.93-22.85 239.23-22.85 239.23-17.2 248.93-17.2 248.93-11.5 239.23-11.5 239.23-5.65 248.73-5.65 248.73 0 232.93 0 232.93-28.75ZM251.38-5.65L251.38-5.65 251.38 0 267.38 0 267.38-5.65 251.38-5.65ZM267.38-22.85L267.38-22.85 267.38-28.75 251.18-28.75 251.18-22.85 267.38-22.85ZM259.28-11.5L259.28-11.5 259.28-17.2 251.18-17.2 251.18-11.5 259.28-11.5ZM273.88-28.75L273.88-28.75 289.88-28.75 289.88-22.85 280.18-22.85 280.18-17.2 289.88-17.2 289.88-11.35 280.18-11.35 280.18 0 273.88 0 273.88-28.75ZM308.33 0L308.33 0 308.33-11.9 303.63-14.35 308.33-16.6 308.33-25.3 302.43-28.75 292.13-28.75 292.13-22.85 302.03-22.85 302.03-17.2 292.13-17.2 292.13-11.35 302.03-11.35 302.03 0 308.33 0Z" opacity="1" transform="matrix(1,0,0,1,0,0)" fill="#fff1dc" class="undefined-text-0" data-fill-palette-color="primary" id="text-0"></path></svg></g></svg></g></svg></g></svg></g><g></g></svg></g></svg></g></svg></g><defs></defs></svg><rect width="395.52" height="247.2" fill="none" stroke="none" visibility="hidden"></rect></g></svg></g></svg>